<svg width="268" height="30" viewBox="0 0 268 30" fill="none" xmlns="http://www.w3.org/2000/svg">
<path d="M0 25.1399L2.9314 21.6987C4.93877 23.6105 7.67899 24.9169 10.2918 24.9169C13.4781 24.9169 15.2305 23.483 15.2305 21.2845C15.2305 18.9585 13.4143 18.2256 10.8334 17.1423L6.978 15.4536C4.20592 14.3065 1.27452 12.1079 1.27452 7.96575C1.27452 3.47307 5.2574 0 10.7697 0C14.0835 0 17.2698 1.37011 19.4683 3.60052L16.8874 6.78682C15.1031 5.2574 13.1594 4.36523 10.7378 4.36523C8.06134 4.36523 6.30888 5.60789 6.30888 7.67899C6.30888 9.9094 8.47556 10.706 10.8016 11.6937L14.6251 13.2869C17.9707 14.6888 20.3286 16.8237 20.3286 20.9021C20.3286 25.4904 16.5369 29.314 10.1962 29.314C6.34074 29.2821 2.67649 27.7845 0 25.1399Z" fill="#424242"/>
<path d="M27.1152 0.509766H36.005C42.282 0.509766 46.934 2.67645 46.934 9.20837C46.934 15.5172 42.282 18.3531 36.1962 18.3531H32.1496V28.7404H27.1471V0.509766H27.1152ZM35.782 14.3702C39.9879 14.3702 41.9953 12.6814 41.9953 9.20837C41.9953 5.70344 39.7967 4.49264 35.5908 4.49264H32.1177V14.3383H35.782V14.3702Z" fill="#424242"/>
<path d="M55.4111 0.509766H72.4578V4.71568H60.4136V12.7452H70.6735V16.9511H60.4136V28.7723H55.4111V0.509766Z" fill="#616161"/>
<path d="M83.4493 0.509766H89.312L98.5205 28.7723H93.1993L88.8978 13.7329C88.0057 10.7378 87.1772 7.51963 86.3488 4.42891H86.1895C85.4248 7.55149 84.5963 10.7697 83.6723 13.7329L79.3389 28.7723H74.209L83.4493 0.509766ZM79.6894 17.1741H93.0082V21.0933H79.6894V17.1741Z" fill="#616161"/>
<path d="M109.418 0.509766H104.415V28.7723H109.418V0.509766Z" fill="#616161"/>
<path d="M118.753 0.509766H128.28C134.143 0.509766 138.699 2.58086 138.699 8.88974C138.699 14.9756 134.175 17.7158 128.28 17.7158H123.755V28.7723H118.753V0.509766ZM127.738 13.701C131.626 13.701 133.729 12.1079 133.729 8.88974C133.729 5.63971 131.626 4.5245 127.738 4.5245H123.755V13.7329H127.738V13.701ZM127.324 16.3775L130.956 13.3824L139.783 28.7404H134.143L127.324 16.3775Z" fill="#616161"/>
<path d="M142.587 0.286621H147.908L151.891 14.4975C152.815 17.7157 153.42 20.4878 154.376 23.7059H154.536C155.491 20.4878 156.129 17.7157 157.021 14.4975L160.94 0.286621H166.07L157.339 28.5491H151.381L142.587 0.286621Z" fill="#FF5722"/>
<path d="M191.05 28.7405H185.729L181.746 14.5296C180.822 11.3115 180.217 8.53937 179.261 5.32121H179.102C178.146 8.53937 177.509 11.3115 176.616 14.5296L172.697 28.7405H167.567L176.298 0.478027H182.256L191.05 28.7405Z" fill="#FF5722"/>
<path d="M197.201 0.509766H202.236V24.5663H213.961V28.7723H197.201V0.509766Z" fill="#616161"/>
<path d="M219.472 16.3775V0.509766H224.474V16.7599C224.474 22.9095 226.768 24.9487 230.21 24.9487C233.651 24.9487 236.04 22.9413 236.04 16.7599V0.509766H240.852V16.3775C240.852 25.6497 236.741 29.2821 230.178 29.2821C223.646 29.2821 219.472 25.6815 219.472 16.3775Z" fill="#616161"/>
<path d="M250.54 0.509766H267.555V4.74754H255.574V11.9804H265.739V16.1864H255.574V24.5663H268.001V28.7723H250.54V0.509766Z" fill="#616161"/>
</svg>
